<mxfile host="65bd71144e" modified="2021-10-29T05:46:01.372Z" agent="5.0 (Windows NT 10.0; Win64; x64) AppleWebKit/537.36 (KHTML, like Gecko) Code/1.61.2 Chrome/91.0.4472.164 Electron/13.5.1 Safari/537.36" etag="8fGeL-fqPuxyqajEH4ba" version="15.6.2" type="embed" pages="7">
    <diagram id="ILKYu9vgjBJOuqvXN9g7" name="*商品情報管理_登録">
        <mxGraphModel dx="1949" dy="890" grid="1" gridSize="10" guides="1" tooltips="1" connect="1" arrows="1" fold="1" page="1" pageScale="1" pageWidth="827" pageHeight="1169" math="0" shadow="0">
            <root>
                <mxCell id="RjQzy-eRPyqWTiVo5QUl-0"/>
                <mxCell id="RjQzy-eRPyqWTiVo5QUl-1" parent="RjQzy-eRPyqWTiVo5QUl-0"/>
                <mxCell id="Vq9T_55c3HzQKSVVPYTR-0" value="" style="endArrow=classic;html=1;rounded=0;startArrow=classic;startFill=1;" parent="RjQzy-eRPyqWTiVo5QUl-1" edge="1">
                    <mxGeometry width="50" height="50" relative="1" as="geometry">
                        <mxPoint x="520" y="480" as="sourcePoint"/>
                        <mxPoint x="700" y="250" as="targetPoint"/>
                    </mxGeometry>
                </mxCell>
                <mxCell id="Gnw6njFXWIFJYC6518m1-0" value="管理者" style="shape=umlActor;verticalLabelPosition=bottom;verticalAlign=top;html=1;" parent="RjQzy-eRPyqWTiVo5QUl-1" vertex="1">
                    <mxGeometry x="-70" y="280" width="30" height="60" as="geometry"/>
                </mxCell>
                <mxCell id="Gnw6njFXWIFJYC6518m1-1" value="ログイン済&lt;br&gt;ホーム画面" style="shape=umlBoundary;whiteSpace=wrap;html=1;fillColor=#dae8fc;strokeColor=#6c8ebf;" parent="RjQzy-eRPyqWTiVo5QUl-1" vertex="1">
                    <mxGeometry x="120" y="120" width="100" height="80" as="geometry"/>
                </mxCell>
                <mxCell id="Gnw6njFXWIFJYC6518m1-2" value="商品情報&lt;br&gt;一覧画面" style="shape=umlBoundary;whiteSpace=wrap;html=1;fillColor=#dae8fc;strokeColor=#6c8ebf;" parent="RjQzy-eRPyqWTiVo5QUl-1" vertex="1">
                    <mxGeometry x="120" y="280" width="100" height="80" as="geometry"/>
                </mxCell>
                <mxCell id="Gnw6njFXWIFJYC6518m1-3" value="新規登録&lt;br&gt;画面" style="shape=umlBoundary;whiteSpace=wrap;html=1;fillColor=#dae8fc;strokeColor=#6c8ebf;" parent="RjQzy-eRPyqWTiVo5QUl-1" vertex="1">
                    <mxGeometry x="120" y="440" width="100" height="80" as="geometry"/>
                </mxCell>
                <mxCell id="Gnw6njFXWIFJYC6518m1-4" value="商品情報&lt;br&gt;を取得する" style="ellipse;shape=umlControl;whiteSpace=wrap;html=1;fillColor=#f8cecc;strokeColor=#b85450;" parent="RjQzy-eRPyqWTiVo5QUl-1" vertex="1">
                    <mxGeometry x="440" y="120" width="70" height="80" as="geometry"/>
                </mxCell>
                <mxCell id="Gnw6njFXWIFJYC6518m1-5" value="商品情報" style="ellipse;shape=umlEntity;whiteSpace=wrap;html=1;fillColor=#d5e8d4;strokeColor=#82b366;" parent="RjQzy-eRPyqWTiVo5QUl-1" vertex="1">
                    <mxGeometry x="720" y="200" width="80" height="80" as="geometry"/>
                </mxCell>
                <mxCell id="Gnw6njFXWIFJYC6518m1-6" value="表示する" style="ellipse;shape=umlControl;whiteSpace=wrap;html=1;fillColor=#f8cecc;strokeColor=#b85450;" parent="RjQzy-eRPyqWTiVo5QUl-1" vertex="1">
                    <mxGeometry x="440" y="280" width="70" height="80" as="geometry"/>
                </mxCell>
                <mxCell id="Gnw6njFXWIFJYC6518m1-7" value="登録する" style="ellipse;shape=umlControl;whiteSpace=wrap;html=1;fillColor=#f8cecc;strokeColor=#b85450;" parent="RjQzy-eRPyqWTiVo5QUl-1" vertex="1">
                    <mxGeometry x="440" y="600" width="70" height="80" as="geometry"/>
                </mxCell>
                <mxCell id="Gnw6njFXWIFJYC6518m1-10" value="" style="endArrow=classic;html=1;rounded=0;" parent="RjQzy-eRPyqWTiVo5QUl-1" edge="1">
                    <mxGeometry width="50" height="50" relative="1" as="geometry">
                        <mxPoint x="240" y="159.17000000000002" as="sourcePoint"/>
                        <mxPoint x="430" y="159" as="targetPoint"/>
                    </mxGeometry>
                </mxCell>
                <mxCell id="Gnw6njFXWIFJYC6518m1-13" value="「商品情報マスタ」&lt;br&gt;を押下" style="text;html=1;strokeColor=none;fillColor=none;align=center;verticalAlign=middle;whiteSpace=wrap;rounded=0;" parent="RjQzy-eRPyqWTiVo5QUl-1" vertex="1">
                    <mxGeometry x="270" y="120" width="110" height="30" as="geometry"/>
                </mxCell>
                <mxCell id="Gnw6njFXWIFJYC6518m1-14" value="" style="endArrow=classic;html=1;rounded=0;" parent="RjQzy-eRPyqWTiVo5QUl-1" edge="1">
                    <mxGeometry width="50" height="50" relative="1" as="geometry">
                        <mxPoint x="-30" y="319.9999999999998" as="sourcePoint"/>
                        <mxPoint x="110" y="160" as="targetPoint"/>
                    </mxGeometry>
                </mxCell>
                <mxCell id="Gnw6njFXWIFJYC6518m1-15" value="" style="endArrow=classic;html=1;rounded=0;" parent="RjQzy-eRPyqWTiVo5QUl-1" edge="1">
                    <mxGeometry width="50" height="50" relative="1" as="geometry">
                        <mxPoint x="-30" y="319.9999999999998" as="sourcePoint"/>
                        <mxPoint x="110" y="480" as="targetPoint"/>
                    </mxGeometry>
                </mxCell>
                <mxCell id="Gnw6njFXWIFJYC6518m1-18" value="" style="endArrow=classic;html=1;rounded=0;" parent="RjQzy-eRPyqWTiVo5QUl-1" edge="1">
                    <mxGeometry width="50" height="50" relative="1" as="geometry">
                        <mxPoint x="-30" y="319.9999999999998" as="sourcePoint"/>
                        <mxPoint x="110" y="320" as="targetPoint"/>
                    </mxGeometry>
                </mxCell>
                <mxCell id="Gnw6njFXWIFJYC6518m1-20" value="入力データを検証する" style="ellipse;shape=umlControl;whiteSpace=wrap;html=1;fillColor=#f8cecc;strokeColor=#b85450;" parent="RjQzy-eRPyqWTiVo5QUl-1" vertex="1">
                    <mxGeometry x="440" y="440" width="70" height="80" as="geometry"/>
                </mxCell>
                <mxCell id="Gnw6njFXWIFJYC6518m1-28" value="" style="endArrow=classic;html=1;rounded=0;startArrow=classic;startFill=1;" parent="RjQzy-eRPyqWTiVo5QUl-1" edge="1">
                    <mxGeometry width="50" height="50" relative="1" as="geometry">
                        <mxPoint x="520" y="160" as="sourcePoint"/>
                        <mxPoint x="710" y="240" as="targetPoint"/>
                    </mxGeometry>
                </mxCell>
                <mxCell id="Gnw6njFXWIFJYC6518m1-36" value="" style="endArrow=none;html=1;rounded=0;jumpStyle=none;startArrow=classic;startFill=1;endFill=0;" parent="RjQzy-eRPyqWTiVo5QUl-1" edge="1">
                    <mxGeometry width="50" height="50" relative="1" as="geometry">
                        <mxPoint x="430" y="320" as="sourcePoint"/>
                        <mxPoint x="240" y="320" as="targetPoint"/>
                    </mxGeometry>
                </mxCell>
                <mxCell id="Gnw6njFXWIFJYC6518m1-37" value="" style="endArrow=classic;html=1;rounded=0;" parent="RjQzy-eRPyqWTiVo5QUl-1" edge="1">
                    <mxGeometry width="50" height="50" relative="1" as="geometry">
                        <mxPoint x="430" y="170" as="sourcePoint"/>
                        <mxPoint x="240" y="310" as="targetPoint"/>
                    </mxGeometry>
                </mxCell>
                <mxCell id="Gnw6njFXWIFJYC6518m1-38" value="" style="endArrow=classic;html=1;rounded=0;" parent="RjQzy-eRPyqWTiVo5QUl-1" edge="1">
                    <mxGeometry width="50" height="50" relative="1" as="geometry">
                        <mxPoint x="430" y="329.9999999999999" as="sourcePoint"/>
                        <mxPoint x="240" y="470" as="targetPoint"/>
                    </mxGeometry>
                </mxCell>
                <mxCell id="Gnw6njFXWIFJYC6518m1-39" value="" style="endArrow=classic;html=1;rounded=0;jumpStyle=none;startArrow=classic;startFill=1;endFill=1;" parent="RjQzy-eRPyqWTiVo5QUl-1" edge="1">
                    <mxGeometry width="50" height="50" relative="1" as="geometry">
                        <mxPoint x="430" y="479.16999999999996" as="sourcePoint"/>
                        <mxPoint x="240" y="479.16999999999996" as="targetPoint"/>
                    </mxGeometry>
                </mxCell>
                <mxCell id="Gnw6njFXWIFJYC6518m1-40" value="" style="endArrow=none;html=1;rounded=0;startArrow=classic;startFill=1;endFill=0;" parent="RjQzy-eRPyqWTiVo5QUl-1" edge="1">
                    <mxGeometry width="50" height="50" relative="1" as="geometry">
                        <mxPoint x="710" y="250" as="sourcePoint"/>
                        <mxPoint x="520" y="640" as="targetPoint"/>
                    </mxGeometry>
                </mxCell>
                <mxCell id="Gnw6njFXWIFJYC6518m1-41" value="" style="endArrow=none;html=1;rounded=0;jumpStyle=none;startArrow=classic;startFill=1;endFill=0;" parent="RjQzy-eRPyqWTiVo5QUl-1" edge="1">
                    <mxGeometry width="50" height="50" relative="1" as="geometry">
                        <mxPoint x="474.41" y="590" as="sourcePoint"/>
                        <mxPoint x="474.41" y="530" as="targetPoint"/>
                    </mxGeometry>
                </mxCell>
                <mxCell id="Vq9T_55c3HzQKSVVPYTR-1" value="登録済か確認する" style="text;html=1;strokeColor=none;fillColor=none;align=center;verticalAlign=middle;whiteSpace=wrap;rounded=0;labelBackgroundColor=default;" parent="RjQzy-eRPyqWTiVo5QUl-1" vertex="1">
                    <mxGeometry x="500" y="390" width="110" height="30" as="geometry"/>
                </mxCell>
                <mxCell id="Vq9T_55c3HzQKSVVPYTR-2" value="登録済&lt;br&gt;入力内容のエラーがある場合は&lt;br&gt;エラーメッセージを表示" style="text;html=1;strokeColor=none;fillColor=none;align=center;verticalAlign=middle;whiteSpace=wrap;rounded=0;labelBackgroundColor=none;" parent="RjQzy-eRPyqWTiVo5QUl-1" vertex="1">
                    <mxGeometry x="280" y="510" width="110" height="30" as="geometry"/>
                </mxCell>
            </root>
        </mxGraphModel>
    </diagram>
    <diagram id="tqDrUX6kjVTJ1dQDjkxv" name="*商品情報管理_参照">
        <mxGraphModel dx="1939" dy="717" grid="1" gridSize="10" guides="1" tooltips="1" connect="1" arrows="1" fold="1" page="1" pageScale="1" pageWidth="827" pageHeight="1169" math="0" shadow="0">
            <root>
                <mxCell id="PXRQ2l0a_g4EKJyjCdS5-0"/>
                <mxCell id="PXRQ2l0a_g4EKJyjCdS5-1" parent="PXRQ2l0a_g4EKJyjCdS5-0"/>
                <mxCell id="1rpL9WHBVxKWEg3x1C6q-0" value="管理者" style="shape=umlActor;verticalLabelPosition=bottom;verticalAlign=top;html=1;" parent="PXRQ2l0a_g4EKJyjCdS5-1" vertex="1">
                    <mxGeometry x="-70" y="280" width="30" height="60" as="geometry"/>
                </mxCell>
                <mxCell id="1rpL9WHBVxKWEg3x1C6q-1" value="ログイン済&lt;br&gt;ホーム画面" style="shape=umlBoundary;whiteSpace=wrap;html=1;fillColor=#dae8fc;strokeColor=#6c8ebf;" parent="PXRQ2l0a_g4EKJyjCdS5-1" vertex="1">
                    <mxGeometry x="120" y="120" width="100" height="80" as="geometry"/>
                </mxCell>
                <mxCell id="1rpL9WHBVxKWEg3x1C6q-2" value="商品情報&lt;br&gt;一覧画面" style="shape=umlBoundary;whiteSpace=wrap;html=1;fillColor=#dae8fc;strokeColor=#6c8ebf;" parent="PXRQ2l0a_g4EKJyjCdS5-1" vertex="1">
                    <mxGeometry x="120" y="280" width="100" height="80" as="geometry"/>
                </mxCell>
                <mxCell id="1rpL9WHBVxKWEg3x1C6q-8" value="詳細画面" style="shape=umlBoundary;whiteSpace=wrap;html=1;fillColor=#dae8fc;strokeColor=#6c8ebf;" parent="PXRQ2l0a_g4EKJyjCdS5-1" vertex="1">
                    <mxGeometry x="120" y="440" width="100" height="80" as="geometry"/>
                </mxCell>
                <mxCell id="1rpL9WHBVxKWEg3x1C6q-14" value="" style="endArrow=classic;html=1;rounded=0;" parent="PXRQ2l0a_g4EKJyjCdS5-1" edge="1">
                    <mxGeometry width="50" height="50" relative="1" as="geometry">
                        <mxPoint x="-30" y="320" as="sourcePoint"/>
                        <mxPoint x="110" y="160" as="targetPoint"/>
                    </mxGeometry>
                </mxCell>
                <mxCell id="1rpL9WHBVxKWEg3x1C6q-15" value="" style="endArrow=classic;html=1;rounded=0;" parent="PXRQ2l0a_g4EKJyjCdS5-1" edge="1">
                    <mxGeometry width="50" height="50" relative="1" as="geometry">
                        <mxPoint x="-30" y="320" as="sourcePoint"/>
                        <mxPoint x="100.00000000000045" y="320" as="targetPoint"/>
                    </mxGeometry>
                </mxCell>
                <mxCell id="1rpL9WHBVxKWEg3x1C6q-16" value="" style="endArrow=classic;html=1;rounded=0;" parent="PXRQ2l0a_g4EKJyjCdS5-1" edge="1">
                    <mxGeometry width="50" height="50" relative="1" as="geometry">
                        <mxPoint x="-30" y="320" as="sourcePoint"/>
                        <mxPoint x="110" y="480" as="targetPoint"/>
                    </mxGeometry>
                </mxCell>
                <mxCell id="iPNbB4vJzEfohk5XW4hL-0" value="商品情報&lt;br&gt;を取得する" style="ellipse;shape=umlControl;whiteSpace=wrap;html=1;fillColor=#f8cecc;strokeColor=#b85450;" parent="PXRQ2l0a_g4EKJyjCdS5-1" vertex="1">
                    <mxGeometry x="440" y="120" width="70" height="80" as="geometry"/>
                </mxCell>
                <mxCell id="iPNbB4vJzEfohk5XW4hL-1" value="商品情報" style="ellipse;shape=umlEntity;whiteSpace=wrap;html=1;fillColor=#d5e8d4;strokeColor=#82b366;" parent="PXRQ2l0a_g4EKJyjCdS5-1" vertex="1">
                    <mxGeometry x="720" y="200" width="80" height="80" as="geometry"/>
                </mxCell>
                <mxCell id="iPNbB4vJzEfohk5XW4hL-2" value="表示する" style="ellipse;shape=umlControl;whiteSpace=wrap;html=1;fillColor=#f8cecc;strokeColor=#b85450;" parent="PXRQ2l0a_g4EKJyjCdS5-1" vertex="1">
                    <mxGeometry x="440" y="280" width="70" height="80" as="geometry"/>
                </mxCell>
                <mxCell id="iPNbB4vJzEfohk5XW4hL-3" value="" style="endArrow=classic;html=1;rounded=0;" parent="PXRQ2l0a_g4EKJyjCdS5-1" edge="1">
                    <mxGeometry width="50" height="50" relative="1" as="geometry">
                        <mxPoint x="240" y="159.17000000000007" as="sourcePoint"/>
                        <mxPoint x="430" y="159.0000000000001" as="targetPoint"/>
                    </mxGeometry>
                </mxCell>
                <mxCell id="iPNbB4vJzEfohk5XW4hL-4" value="「商品情報マスタ」&lt;br&gt;を押下" style="text;html=1;strokeColor=none;fillColor=none;align=center;verticalAlign=middle;whiteSpace=wrap;rounded=0;" parent="PXRQ2l0a_g4EKJyjCdS5-1" vertex="1">
                    <mxGeometry x="270" y="120" width="110" height="30" as="geometry"/>
                </mxCell>
                <mxCell id="iPNbB4vJzEfohk5XW4hL-5" value="" style="endArrow=classic;html=1;rounded=0;startArrow=classic;startFill=1;" parent="PXRQ2l0a_g4EKJyjCdS5-1" edge="1">
                    <mxGeometry width="50" height="50" relative="1" as="geometry">
                        <mxPoint x="520" y="159.9999999999999" as="sourcePoint"/>
                        <mxPoint x="710" y="239.9999999999999" as="targetPoint"/>
                    </mxGeometry>
                </mxCell>
                <mxCell id="iPNbB4vJzEfohk5XW4hL-6" value="" style="endArrow=none;html=1;rounded=0;jumpStyle=none;startArrow=classic;startFill=1;endFill=0;" parent="PXRQ2l0a_g4EKJyjCdS5-1" edge="1">
                    <mxGeometry width="50" height="50" relative="1" as="geometry">
                        <mxPoint x="430" y="320" as="sourcePoint"/>
                        <mxPoint x="240" y="320" as="targetPoint"/>
                    </mxGeometry>
                </mxCell>
                <mxCell id="iPNbB4vJzEfohk5XW4hL-7" value="" style="endArrow=classic;html=1;rounded=0;" parent="PXRQ2l0a_g4EKJyjCdS5-1" edge="1">
                    <mxGeometry width="50" height="50" relative="1" as="geometry">
                        <mxPoint x="430" y="169.9999999999999" as="sourcePoint"/>
                        <mxPoint x="240" y="310" as="targetPoint"/>
                    </mxGeometry>
                </mxCell>
                <mxCell id="iPNbB4vJzEfohk5XW4hL-9" value="" style="endArrow=none;html=1;rounded=0;jumpStyle=none;startArrow=classic;startFill=1;endFill=0;" parent="PXRQ2l0a_g4EKJyjCdS5-1" edge="1">
                    <mxGeometry width="50" height="50" relative="1" as="geometry">
                        <mxPoint x="240" y="480" as="sourcePoint"/>
                        <mxPoint x="430" y="330" as="targetPoint"/>
                    </mxGeometry>
                </mxCell>
            </root>
        </mxGraphModel>
    </diagram>
    <diagram id="6tUY1fHKUDUPEvY5heDo" name="*商品情報管理_編集">
        <mxGraphModel dx="2495" dy="1075" grid="1" gridSize="10" guides="1" tooltips="1" connect="1" arrows="1" fold="1" page="1" pageScale="1" pageWidth="827" pageHeight="1169" math="0" shadow="0">
            <root>
                <mxCell id="_VSGYbvi7wLsRS52qR0R-0"/>
                <mxCell id="_VSGYbvi7wLsRS52qR0R-1" parent="_VSGYbvi7wLsRS52qR0R-0"/>
                <mxCell id="ZGh9GMX-KGK0EozrQcbM-0" value="管理者" style="shape=umlActor;verticalLabelPosition=bottom;verticalAlign=top;html=1;" parent="_VSGYbvi7wLsRS52qR0R-1" vertex="1">
                    <mxGeometry x="-70" y="280" width="30" height="60" as="geometry"/>
                </mxCell>
                <mxCell id="ZGh9GMX-KGK0EozrQcbM-1" value="ログイン済&lt;br&gt;ホーム画面" style="shape=umlBoundary;whiteSpace=wrap;html=1;fillColor=#dae8fc;strokeColor=#6c8ebf;" parent="_VSGYbvi7wLsRS52qR0R-1" vertex="1">
                    <mxGeometry x="120" y="120" width="100" height="80" as="geometry"/>
                </mxCell>
                <mxCell id="ZGh9GMX-KGK0EozrQcbM-2" value="商品情報&lt;br&gt;一覧画面" style="shape=umlBoundary;whiteSpace=wrap;html=1;fillColor=#dae8fc;strokeColor=#6c8ebf;" parent="_VSGYbvi7wLsRS52qR0R-1" vertex="1">
                    <mxGeometry x="120" y="280" width="100" height="80" as="geometry"/>
                </mxCell>
                <mxCell id="ZGh9GMX-KGK0EozrQcbM-3" value="詳細画面" style="shape=umlBoundary;whiteSpace=wrap;html=1;fillColor=#dae8fc;strokeColor=#6c8ebf;" parent="_VSGYbvi7wLsRS52qR0R-1" vertex="1">
                    <mxGeometry x="120" y="440" width="100" height="80" as="geometry"/>
                </mxCell>
                <mxCell id="ZGh9GMX-KGK0EozrQcbM-4" value="" style="endArrow=classic;html=1;rounded=0;" parent="_VSGYbvi7wLsRS52qR0R-1" edge="1">
                    <mxGeometry width="50" height="50" relative="1" as="geometry">
                        <mxPoint x="-30" y="320" as="sourcePoint"/>
                        <mxPoint x="110" y="159.9999999999999" as="targetPoint"/>
                    </mxGeometry>
                </mxCell>
                <mxCell id="ZGh9GMX-KGK0EozrQcbM-5" value="" style="endArrow=classic;html=1;rounded=0;" parent="_VSGYbvi7wLsRS52qR0R-1" edge="1">
                    <mxGeometry width="50" height="50" relative="1" as="geometry">
                        <mxPoint x="-30" y="320" as="sourcePoint"/>
                        <mxPoint x="100.00000000000045" y="320" as="targetPoint"/>
                    </mxGeometry>
                </mxCell>
                <mxCell id="ZGh9GMX-KGK0EozrQcbM-6" value="" style="endArrow=classic;html=1;rounded=0;" parent="_VSGYbvi7wLsRS52qR0R-1" edge="1">
                    <mxGeometry width="50" height="50" relative="1" as="geometry">
                        <mxPoint x="-30" y="320" as="sourcePoint"/>
                        <mxPoint x="110" y="480" as="targetPoint"/>
                    </mxGeometry>
                </mxCell>
                <mxCell id="ZGh9GMX-KGK0EozrQcbM-7" value="商品情報&lt;br&gt;を取得する" style="ellipse;shape=umlControl;whiteSpace=wrap;html=1;fillColor=#f8cecc;strokeColor=#b85450;" parent="_VSGYbvi7wLsRS52qR0R-1" vertex="1">
                    <mxGeometry x="440" y="120" width="70" height="80" as="geometry"/>
                </mxCell>
                <mxCell id="ZGh9GMX-KGK0EozrQcbM-8" value="商品情報" style="ellipse;shape=umlEntity;whiteSpace=wrap;html=1;fillColor=#d5e8d4;strokeColor=#82b366;" parent="_VSGYbvi7wLsRS52qR0R-1" vertex="1">
                    <mxGeometry x="720" y="200" width="80" height="80" as="geometry"/>
                </mxCell>
                <mxCell id="ZGh9GMX-KGK0EozrQcbM-9" value="表示する" style="ellipse;shape=umlControl;whiteSpace=wrap;html=1;fillColor=#f8cecc;strokeColor=#b85450;" parent="_VSGYbvi7wLsRS52qR0R-1" vertex="1">
                    <mxGeometry x="440" y="280" width="70" height="80" as="geometry"/>
                </mxCell>
                <mxCell id="ZGh9GMX-KGK0EozrQcbM-10" value="" style="endArrow=classic;html=1;rounded=0;" parent="_VSGYbvi7wLsRS52qR0R-1" edge="1">
                    <mxGeometry width="50" height="50" relative="1" as="geometry">
                        <mxPoint x="240" y="159.17000000000007" as="sourcePoint"/>
                        <mxPoint x="430" y="159.0000000000001" as="targetPoint"/>
                    </mxGeometry>
                </mxCell>
                <mxCell id="ZGh9GMX-KGK0EozrQcbM-11" value="「商品情報マスタ」&lt;br&gt;を押下" style="text;html=1;strokeColor=none;fillColor=none;align=center;verticalAlign=middle;whiteSpace=wrap;rounded=0;" parent="_VSGYbvi7wLsRS52qR0R-1" vertex="1">
                    <mxGeometry x="270" y="120" width="110" height="30" as="geometry"/>
                </mxCell>
                <mxCell id="ZGh9GMX-KGK0EozrQcbM-12" value="" style="endArrow=classic;html=1;rounded=0;startArrow=classic;startFill=1;" parent="_VSGYbvi7wLsRS52qR0R-1" edge="1">
                    <mxGeometry width="50" height="50" relative="1" as="geometry">
                        <mxPoint x="520" y="159.9999999999999" as="sourcePoint"/>
                        <mxPoint x="710" y="239.9999999999999" as="targetPoint"/>
                    </mxGeometry>
                </mxCell>
                <mxCell id="ZGh9GMX-KGK0EozrQcbM-13" value="" style="endArrow=none;html=1;rounded=0;jumpStyle=none;startArrow=classic;startFill=1;endFill=0;" parent="_VSGYbvi7wLsRS52qR0R-1" edge="1">
                    <mxGeometry width="50" height="50" relative="1" as="geometry">
                        <mxPoint x="430" y="320" as="sourcePoint"/>
                        <mxPoint x="240" y="320" as="targetPoint"/>
                    </mxGeometry>
                </mxCell>
                <mxCell id="ZGh9GMX-KGK0EozrQcbM-14" value="" style="endArrow=classic;html=1;rounded=0;" parent="_VSGYbvi7wLsRS52qR0R-1" edge="1">
                    <mxGeometry width="50" height="50" relative="1" as="geometry">
                        <mxPoint x="430" y="169.9999999999999" as="sourcePoint"/>
                        <mxPoint x="240" y="310" as="targetPoint"/>
                    </mxGeometry>
                </mxCell>
                <mxCell id="ZGh9GMX-KGK0EozrQcbM-15" value="" style="endArrow=classic;html=1;rounded=0;jumpStyle=none;startArrow=classic;startFill=1;endFill=1;" parent="_VSGYbvi7wLsRS52qR0R-1" edge="1">
                    <mxGeometry width="50" height="50" relative="1" as="geometry">
                        <mxPoint x="240" y="480" as="sourcePoint"/>
                        <mxPoint x="430" y="330" as="targetPoint"/>
                    </mxGeometry>
                </mxCell>
                <mxCell id="89j6IWQm-zj6Ex24CFWD-0" value="編集画面" style="shape=umlBoundary;whiteSpace=wrap;html=1;fillColor=#dae8fc;strokeColor=#6c8ebf;" parent="_VSGYbvi7wLsRS52qR0R-1" vertex="1">
                    <mxGeometry x="120" y="600" width="100" height="80" as="geometry"/>
                </mxCell>
                <mxCell id="89j6IWQm-zj6Ex24CFWD-1" value="" style="endArrow=classic;html=1;rounded=0;" parent="_VSGYbvi7wLsRS52qR0R-1" edge="1">
                    <mxGeometry width="50" height="50" relative="1" as="geometry">
                        <mxPoint x="-30" y="320" as="sourcePoint"/>
                        <mxPoint x="110" y="640" as="targetPoint"/>
                    </mxGeometry>
                </mxCell>
                <mxCell id="e5nbEp_Bl4w7Y9Twp-y8-0" value="入力データを検証する" style="ellipse;shape=umlControl;whiteSpace=wrap;html=1;fillColor=#f8cecc;strokeColor=#b85450;" parent="_VSGYbvi7wLsRS52qR0R-1" vertex="1">
                    <mxGeometry x="440" y="600" width="70" height="80" as="geometry"/>
                </mxCell>
                <mxCell id="e5nbEp_Bl4w7Y9Twp-y8-1" value="" style="endArrow=none;html=1;rounded=0;jumpStyle=none;startArrow=classic;startFill=1;endFill=0;" parent="_VSGYbvi7wLsRS52qR0R-1" edge="1">
                    <mxGeometry width="50" height="50" relative="1" as="geometry">
                        <mxPoint x="430" y="639.29" as="sourcePoint"/>
                        <mxPoint x="240" y="639.29" as="targetPoint"/>
                    </mxGeometry>
                </mxCell>
                <mxCell id="e5nbEp_Bl4w7Y9Twp-y8-2" value="更新する" style="ellipse;shape=umlControl;whiteSpace=wrap;html=1;fillColor=#f8cecc;strokeColor=#b85450;" parent="_VSGYbvi7wLsRS52qR0R-1" vertex="1">
                    <mxGeometry x="440" y="760" width="70" height="80" as="geometry"/>
                </mxCell>
                <mxCell id="RPV9HML3zfkD-CsFFbKB-0" value="" style="endArrow=none;html=1;rounded=0;jumpStyle=none;startArrow=classic;startFill=1;endFill=0;" parent="_VSGYbvi7wLsRS52qR0R-1" edge="1">
                    <mxGeometry width="50" height="50" relative="1" as="geometry">
                        <mxPoint x="474.29" y="750" as="sourcePoint"/>
                        <mxPoint x="474.29" y="690" as="targetPoint"/>
                    </mxGeometry>
                </mxCell>
                <mxCell id="Hhdrln9dh6SRpbh8pLZr-0" value="" style="endArrow=none;html=1;rounded=0;startArrow=classic;startFill=1;endFill=0;" parent="_VSGYbvi7wLsRS52qR0R-1" edge="1">
                    <mxGeometry width="50" height="50" relative="1" as="geometry">
                        <mxPoint x="710" y="250" as="sourcePoint"/>
                        <mxPoint x="520" y="800" as="targetPoint"/>
                    </mxGeometry>
                </mxCell>
                <mxCell id="Hhdrln9dh6SRpbh8pLZr-1" value="" style="endArrow=classic;html=1;rounded=0;" parent="_VSGYbvi7wLsRS52qR0R-1" edge="1">
                    <mxGeometry width="50" height="50" relative="1" as="geometry">
                        <mxPoint x="430" y="350" as="sourcePoint"/>
                        <mxPoint x="240" y="630" as="targetPoint"/>
                    </mxGeometry>
                </mxCell>
                <mxCell id="LWEl7F2l3l3dTBwuuSCI-0" value="" style="endArrow=classic;html=1;rounded=0;jumpStyle=arc;" parent="_VSGYbvi7wLsRS52qR0R-1" edge="1">
                    <mxGeometry width="50" height="50" relative="1" as="geometry">
                        <mxPoint x="430" y="190" as="sourcePoint"/>
                        <mxPoint x="240" y="470" as="targetPoint"/>
                    </mxGeometry>
                </mxCell>
            </root>
        </mxGraphModel>
    </diagram>
    <diagram id="TBSgkhmu4G3TFUgdyY9W" name="*商品情報管理_削除">
        <mxGraphModel dx="2161" dy="860" grid="1" gridSize="10" guides="1" tooltips="1" connect="1" arrows="1" fold="1" page="1" pageScale="1" pageWidth="827" pageHeight="1169" math="0" shadow="0">
            <root>
                <mxCell id="9o_h4I2vwBO74pGrK6IW-0"/>
                <mxCell id="9o_h4I2vwBO74pGrK6IW-1" parent="9o_h4I2vwBO74pGrK6IW-0"/>
                <mxCell id="OTztZru-MW-0BxmwSwlt-0" value="管理者" style="shape=umlActor;verticalLabelPosition=bottom;verticalAlign=top;html=1;" parent="9o_h4I2vwBO74pGrK6IW-1" vertex="1">
                    <mxGeometry x="-70" y="280" width="30" height="60" as="geometry"/>
                </mxCell>
                <mxCell id="OTztZru-MW-0BxmwSwlt-1" value="ログイン済&lt;br&gt;ホーム画面" style="shape=umlBoundary;whiteSpace=wrap;html=1;fillColor=#dae8fc;strokeColor=#6c8ebf;" parent="9o_h4I2vwBO74pGrK6IW-1" vertex="1">
                    <mxGeometry x="120" y="120" width="100" height="80" as="geometry"/>
                </mxCell>
                <mxCell id="OTztZru-MW-0BxmwSwlt-2" value="商品情報&lt;br&gt;一覧画面" style="shape=umlBoundary;whiteSpace=wrap;html=1;fillColor=#dae8fc;strokeColor=#6c8ebf;" parent="9o_h4I2vwBO74pGrK6IW-1" vertex="1">
                    <mxGeometry x="120" y="280" width="100" height="80" as="geometry"/>
                </mxCell>
                <mxCell id="OTztZru-MW-0BxmwSwlt-3" value="詳細画面" style="shape=umlBoundary;whiteSpace=wrap;html=1;fillColor=#dae8fc;strokeColor=#6c8ebf;" parent="9o_h4I2vwBO74pGrK6IW-1" vertex="1">
                    <mxGeometry x="120" y="440" width="100" height="80" as="geometry"/>
                </mxCell>
                <mxCell id="OTztZru-MW-0BxmwSwlt-4" value="" style="endArrow=classic;html=1;rounded=0;" parent="9o_h4I2vwBO74pGrK6IW-1" edge="1">
                    <mxGeometry width="50" height="50" relative="1" as="geometry">
                        <mxPoint x="-29.999999999999545" y="320" as="sourcePoint"/>
                        <mxPoint x="110.00000000000045" y="160" as="targetPoint"/>
                    </mxGeometry>
                </mxCell>
                <mxCell id="OTztZru-MW-0BxmwSwlt-5" value="" style="endArrow=classic;html=1;rounded=0;" parent="9o_h4I2vwBO74pGrK6IW-1" edge="1">
                    <mxGeometry width="50" height="50" relative="1" as="geometry">
                        <mxPoint x="-29.999999999999545" y="320" as="sourcePoint"/>
                        <mxPoint x="100.00000000000045" y="320" as="targetPoint"/>
                    </mxGeometry>
                </mxCell>
                <mxCell id="OTztZru-MW-0BxmwSwlt-6" value="" style="endArrow=classic;html=1;rounded=0;" parent="9o_h4I2vwBO74pGrK6IW-1" edge="1">
                    <mxGeometry width="50" height="50" relative="1" as="geometry">
                        <mxPoint x="-29.999999999999545" y="320" as="sourcePoint"/>
                        <mxPoint x="110.00000000000045" y="480" as="targetPoint"/>
                    </mxGeometry>
                </mxCell>
                <mxCell id="OTztZru-MW-0BxmwSwlt-7" value="商品情報&lt;br&gt;を取得する" style="ellipse;shape=umlControl;whiteSpace=wrap;html=1;fillColor=#f8cecc;strokeColor=#b85450;" parent="9o_h4I2vwBO74pGrK6IW-1" vertex="1">
                    <mxGeometry x="440" y="120" width="70" height="80" as="geometry"/>
                </mxCell>
                <mxCell id="OTztZru-MW-0BxmwSwlt-8" value="商品情報" style="ellipse;shape=umlEntity;whiteSpace=wrap;html=1;fillColor=#d5e8d4;strokeColor=#82b366;" parent="9o_h4I2vwBO74pGrK6IW-1" vertex="1">
                    <mxGeometry x="720" y="200" width="80" height="80" as="geometry"/>
                </mxCell>
                <mxCell id="OTztZru-MW-0BxmwSwlt-9" value="表示する" style="ellipse;shape=umlControl;whiteSpace=wrap;html=1;fillColor=#f8cecc;strokeColor=#b85450;" parent="9o_h4I2vwBO74pGrK6IW-1" vertex="1">
                    <mxGeometry x="440" y="280" width="70" height="80" as="geometry"/>
                </mxCell>
                <mxCell id="OTztZru-MW-0BxmwSwlt-10" value="" style="endArrow=classic;html=1;rounded=0;" parent="9o_h4I2vwBO74pGrK6IW-1" edge="1">
                    <mxGeometry width="50" height="50" relative="1" as="geometry">
                        <mxPoint x="240.00000000000045" y="159.17000000000007" as="sourcePoint"/>
                        <mxPoint x="430" y="159" as="targetPoint"/>
                    </mxGeometry>
                </mxCell>
                <mxCell id="OTztZru-MW-0BxmwSwlt-11" value="「商品情報マスタ」&lt;br&gt;を押下" style="text;html=1;strokeColor=none;fillColor=none;align=center;verticalAlign=middle;whiteSpace=wrap;rounded=0;" parent="9o_h4I2vwBO74pGrK6IW-1" vertex="1">
                    <mxGeometry x="270" y="120" width="110" height="30" as="geometry"/>
                </mxCell>
                <mxCell id="OTztZru-MW-0BxmwSwlt-12" value="" style="endArrow=classic;html=1;rounded=0;startArrow=classic;startFill=1;" parent="9o_h4I2vwBO74pGrK6IW-1" edge="1">
                    <mxGeometry width="50" height="50" relative="1" as="geometry">
                        <mxPoint x="520" y="160" as="sourcePoint"/>
                        <mxPoint x="710" y="240" as="targetPoint"/>
                    </mxGeometry>
                </mxCell>
                <mxCell id="OTztZru-MW-0BxmwSwlt-13" value="" style="endArrow=none;html=1;rounded=0;jumpStyle=none;startArrow=classic;startFill=1;endFill=0;" parent="9o_h4I2vwBO74pGrK6IW-1" edge="1">
                    <mxGeometry width="50" height="50" relative="1" as="geometry">
                        <mxPoint x="430" y="320" as="sourcePoint"/>
                        <mxPoint x="240.00000000000045" y="320" as="targetPoint"/>
                    </mxGeometry>
                </mxCell>
                <mxCell id="OTztZru-MW-0BxmwSwlt-14" value="" style="endArrow=classic;html=1;rounded=0;" parent="9o_h4I2vwBO74pGrK6IW-1" edge="1">
                    <mxGeometry width="50" height="50" relative="1" as="geometry">
                        <mxPoint x="430" y="170" as="sourcePoint"/>
                        <mxPoint x="240.00000000000045" y="310" as="targetPoint"/>
                    </mxGeometry>
                </mxCell>
                <mxCell id="OTztZru-MW-0BxmwSwlt-15" value="" style="endArrow=classic;html=1;rounded=0;jumpStyle=none;startArrow=classic;startFill=1;endFill=1;" parent="9o_h4I2vwBO74pGrK6IW-1" edge="1">
                    <mxGeometry width="50" height="50" relative="1" as="geometry">
                        <mxPoint x="240.00000000000045" y="480" as="sourcePoint"/>
                        <mxPoint x="430" y="330" as="targetPoint"/>
                    </mxGeometry>
                </mxCell>
                <mxCell id="OTztZru-MW-0BxmwSwlt-20" value="削除する" style="ellipse;shape=umlControl;whiteSpace=wrap;html=1;fillColor=#f8cecc;strokeColor=#b85450;" parent="9o_h4I2vwBO74pGrK6IW-1" vertex="1">
                    <mxGeometry x="440" y="440" width="70" height="80" as="geometry"/>
                </mxCell>
                <mxCell id="OTztZru-MW-0BxmwSwlt-22" value="" style="endArrow=none;html=1;rounded=0;startArrow=classic;startFill=1;endFill=0;" parent="9o_h4I2vwBO74pGrK6IW-1" edge="1">
                    <mxGeometry width="50" height="50" relative="1" as="geometry">
                        <mxPoint x="710" y="250" as="sourcePoint"/>
                        <mxPoint x="520" y="480" as="targetPoint"/>
                    </mxGeometry>
                </mxCell>
                <mxCell id="OTztZru-MW-0BxmwSwlt-24" value="" style="endArrow=none;html=1;rounded=0;jumpStyle=none;startArrow=classic;startFill=1;endFill=0;" parent="9o_h4I2vwBO74pGrK6IW-1" edge="1">
                    <mxGeometry width="50" height="50" relative="1" as="geometry">
                        <mxPoint x="430" y="490" as="sourcePoint"/>
                        <mxPoint x="240.00000000000045" y="490" as="targetPoint"/>
                    </mxGeometry>
                </mxCell>
            </root>
        </mxGraphModel>
    </diagram>
    <diagram id="833zbM6ukXLLUMzZ-yON" name="*ベンチマークマスタ管理_登録">
        <mxGraphModel dx="2161" dy="860" grid="1" gridSize="10" guides="1" tooltips="1" connect="1" arrows="1" fold="1" page="1" pageScale="1" pageWidth="827" pageHeight="1169" math="0" shadow="0">
            <root>
                <mxCell id="vt_Iw-wpivOB3l-9KgBU-0"/>
                <mxCell id="vt_Iw-wpivOB3l-9KgBU-1" parent="vt_Iw-wpivOB3l-9KgBU-0"/>
                <mxCell id="umbCUqlV6Kv5ittQlC07-0" value="管理者&lt;br&gt;正規社員" style="shape=umlActor;verticalLabelPosition=bottom;verticalAlign=top;html=1;" parent="vt_Iw-wpivOB3l-9KgBU-1" vertex="1">
                    <mxGeometry x="-70" y="280" width="30" height="60" as="geometry"/>
                </mxCell>
                <mxCell id="umbCUqlV6Kv5ittQlC07-1" value="ログイン済&lt;br&gt;ホーム画面" style="shape=umlBoundary;whiteSpace=wrap;html=1;fillColor=#dae8fc;strokeColor=#6c8ebf;" parent="vt_Iw-wpivOB3l-9KgBU-1" vertex="1">
                    <mxGeometry x="120" y="120" width="100" height="80" as="geometry"/>
                </mxCell>
                <mxCell id="umbCUqlV6Kv5ittQlC07-2" value="ベンチマーク&lt;br&gt;情報一覧画面" style="shape=umlBoundary;whiteSpace=wrap;html=1;fillColor=#dae8fc;strokeColor=#6c8ebf;" parent="vt_Iw-wpivOB3l-9KgBU-1" vertex="1">
                    <mxGeometry x="120" y="280" width="100" height="80" as="geometry"/>
                </mxCell>
                <mxCell id="umbCUqlV6Kv5ittQlC07-3" value="新規登録&lt;br&gt;画面" style="shape=umlBoundary;whiteSpace=wrap;html=1;fillColor=#dae8fc;strokeColor=#6c8ebf;" parent="vt_Iw-wpivOB3l-9KgBU-1" vertex="1">
                    <mxGeometry x="120" y="440" width="100" height="80" as="geometry"/>
                </mxCell>
                <mxCell id="umbCUqlV6Kv5ittQlC07-4" value="商品情報&lt;br&gt;を取得する" style="ellipse;shape=umlControl;whiteSpace=wrap;html=1;fillColor=#f8cecc;strokeColor=#b85450;" parent="vt_Iw-wpivOB3l-9KgBU-1" vertex="1">
                    <mxGeometry x="440" y="120" width="70" height="80" as="geometry"/>
                </mxCell>
                <mxCell id="umbCUqlV6Kv5ittQlC07-5" value="商品情報" style="ellipse;shape=umlEntity;whiteSpace=wrap;html=1;fillColor=#d5e8d4;strokeColor=#82b366;" parent="vt_Iw-wpivOB3l-9KgBU-1" vertex="1">
                    <mxGeometry x="720" y="200" width="80" height="80" as="geometry"/>
                </mxCell>
                <mxCell id="umbCUqlV6Kv5ittQlC07-6" value="表示する" style="ellipse;shape=umlControl;whiteSpace=wrap;html=1;fillColor=#f8cecc;strokeColor=#b85450;" parent="vt_Iw-wpivOB3l-9KgBU-1" vertex="1">
                    <mxGeometry x="440" y="280" width="70" height="80" as="geometry"/>
                </mxCell>
                <mxCell id="umbCUqlV6Kv5ittQlC07-10" value="" style="endArrow=classic;html=1;rounded=0;" parent="vt_Iw-wpivOB3l-9KgBU-1" edge="1">
                    <mxGeometry width="50" height="50" relative="1" as="geometry">
                        <mxPoint x="235" y="319.28999999999996" as="sourcePoint"/>
                        <mxPoint x="430" y="319" as="targetPoint"/>
                    </mxGeometry>
                </mxCell>
                <mxCell id="umbCUqlV6Kv5ittQlC07-13" value="「ベンチマークマスタ情報」&lt;br&gt;を押下" style="text;html=1;strokeColor=none;fillColor=none;align=center;verticalAlign=middle;whiteSpace=wrap;rounded=0;" parent="vt_Iw-wpivOB3l-9KgBU-1" vertex="1">
                    <mxGeometry x="240" y="130" width="170" height="30" as="geometry"/>
                </mxCell>
                <mxCell id="umbCUqlV6Kv5ittQlC07-14" value="" style="endArrow=classic;html=1;rounded=0;" parent="vt_Iw-wpivOB3l-9KgBU-1" edge="1">
                    <mxGeometry width="50" height="50" relative="1" as="geometry">
                        <mxPoint x="-30" y="320" as="sourcePoint"/>
                        <mxPoint x="110" y="160" as="targetPoint"/>
                    </mxGeometry>
                </mxCell>
                <mxCell id="umbCUqlV6Kv5ittQlC07-15" value="" style="endArrow=classic;html=1;rounded=0;" parent="vt_Iw-wpivOB3l-9KgBU-1" edge="1">
                    <mxGeometry width="50" height="50" relative="1" as="geometry">
                        <mxPoint x="-30" y="320" as="sourcePoint"/>
                        <mxPoint x="110" y="480" as="targetPoint"/>
                    </mxGeometry>
                </mxCell>
                <mxCell id="umbCUqlV6Kv5ittQlC07-18" value="" style="endArrow=classic;html=1;rounded=0;" parent="vt_Iw-wpivOB3l-9KgBU-1" edge="1">
                    <mxGeometry width="50" height="50" relative="1" as="geometry">
                        <mxPoint x="-30" y="320" as="sourcePoint"/>
                        <mxPoint x="110" y="320" as="targetPoint"/>
                    </mxGeometry>
                </mxCell>
                <mxCell id="umbCUqlV6Kv5ittQlC07-28" value="" style="endArrow=classic;html=1;rounded=0;startArrow=classic;startFill=1;" parent="vt_Iw-wpivOB3l-9KgBU-1" edge="1">
                    <mxGeometry width="50" height="50" relative="1" as="geometry">
                        <mxPoint x="520" y="160" as="sourcePoint"/>
                        <mxPoint x="710" y="240" as="targetPoint"/>
                    </mxGeometry>
                </mxCell>
                <mxCell id="2oeiLMOkj2u02Iv2NtO_-0" value="" style="endArrow=classic;html=1;rounded=0;" parent="vt_Iw-wpivOB3l-9KgBU-1" edge="1">
                    <mxGeometry width="50" height="50" relative="1" as="geometry">
                        <mxPoint x="230" y="159.58000000000007" as="sourcePoint"/>
                        <mxPoint x="425" y="159.2900000000001" as="targetPoint"/>
                    </mxGeometry>
                </mxCell>
                <mxCell id="IYdqY8qAWCrfkEcv81gT-0" value="" style="endArrow=classic;html=1;rounded=0;" parent="vt_Iw-wpivOB3l-9KgBU-1" edge="1">
                    <mxGeometry width="50" height="50" relative="1" as="geometry">
                        <mxPoint x="430" y="170" as="sourcePoint"/>
                        <mxPoint x="240" y="310" as="targetPoint"/>
                    </mxGeometry>
                </mxCell>
                <mxCell id="IYdqY8qAWCrfkEcv81gT-1" value="" style="endArrow=classic;html=1;rounded=0;" parent="vt_Iw-wpivOB3l-9KgBU-1" edge="1">
                    <mxGeometry width="50" height="50" relative="1" as="geometry">
                        <mxPoint x="430" y="330" as="sourcePoint"/>
                        <mxPoint x="240" y="470" as="targetPoint"/>
                    </mxGeometry>
                </mxCell>
                <mxCell id="PjFye7M60dUT5PhpiFC3-0" value="登録する" style="ellipse;shape=umlControl;whiteSpace=wrap;html=1;fillColor=#f8cecc;strokeColor=#b85450;" parent="vt_Iw-wpivOB3l-9KgBU-1" vertex="1">
                    <mxGeometry x="440" y="600" width="70" height="80" as="geometry"/>
                </mxCell>
                <mxCell id="PjFye7M60dUT5PhpiFC3-1" value="入力データを検証する" style="ellipse;shape=umlControl;whiteSpace=wrap;html=1;fillColor=#f8cecc;strokeColor=#b85450;" parent="vt_Iw-wpivOB3l-9KgBU-1" vertex="1">
                    <mxGeometry x="440" y="440" width="70" height="80" as="geometry"/>
                </mxCell>
                <mxCell id="PjFye7M60dUT5PhpiFC3-2" value="" style="endArrow=none;html=1;rounded=0;jumpStyle=none;startArrow=classic;startFill=1;endFill=0;" parent="vt_Iw-wpivOB3l-9KgBU-1" edge="1">
                    <mxGeometry width="50" height="50" relative="1" as="geometry">
                        <mxPoint x="474.40999999999985" y="590" as="sourcePoint"/>
                        <mxPoint x="474.40999999999985" y="530" as="targetPoint"/>
                    </mxGeometry>
                </mxCell>
                <mxCell id="PjFye7M60dUT5PhpiFC3-3" value="" style="endArrow=classic;html=1;rounded=0;" parent="vt_Iw-wpivOB3l-9KgBU-1" edge="1">
                    <mxGeometry width="50" height="50" relative="1" as="geometry">
                        <mxPoint x="240" y="479.5799999999998" as="sourcePoint"/>
                        <mxPoint x="435" y="479.28999999999985" as="targetPoint"/>
                    </mxGeometry>
                </mxCell>
                <mxCell id="PjFye7M60dUT5PhpiFC3-4" value="" style="endArrow=classic;html=1;rounded=0;" parent="vt_Iw-wpivOB3l-9KgBU-1" edge="1">
                    <mxGeometry width="50" height="50" relative="1" as="geometry">
                        <mxPoint x="520" y="640" as="sourcePoint"/>
                        <mxPoint x="710" y="250" as="targetPoint"/>
                    </mxGeometry>
                </mxCell>
            </root>
        </mxGraphModel>
    </diagram>
    <diagram id="HoUqKzkVgNoehV_q0Trm" name="*ベンチマークマスタ管理_参照">
        <mxGraphModel dx="2161" dy="860" grid="1" gridSize="10" guides="1" tooltips="1" connect="1" arrows="1" fold="1" page="1" pageScale="1" pageWidth="827" pageHeight="1169" math="0" shadow="0">
            <root>
                <mxCell id="R20llAi6Esj5Cy62yfB9-0"/>
                <mxCell id="R20llAi6Esj5Cy62yfB9-1" parent="R20llAi6Esj5Cy62yfB9-0"/>
                <mxCell id="6b82cl1bx_CZ2JBgUTdo-0" value="管理者&lt;br&gt;正規社員" style="shape=umlActor;verticalLabelPosition=bottom;verticalAlign=top;html=1;" parent="R20llAi6Esj5Cy62yfB9-1" vertex="1">
                    <mxGeometry x="-70" y="280" width="30" height="60" as="geometry"/>
                </mxCell>
                <mxCell id="6b82cl1bx_CZ2JBgUTdo-1" value="ログイン済&lt;br&gt;ホーム画面" style="shape=umlBoundary;whiteSpace=wrap;html=1;fillColor=#dae8fc;strokeColor=#6c8ebf;" parent="R20llAi6Esj5Cy62yfB9-1" vertex="1">
                    <mxGeometry x="120" y="120" width="100" height="80" as="geometry"/>
                </mxCell>
                <mxCell id="6b82cl1bx_CZ2JBgUTdo-3" value="詳細画面" style="shape=umlBoundary;whiteSpace=wrap;html=1;fillColor=#dae8fc;strokeColor=#6c8ebf;" parent="R20llAi6Esj5Cy62yfB9-1" vertex="1">
                    <mxGeometry x="120" y="440" width="100" height="80" as="geometry"/>
                </mxCell>
                <mxCell id="6b82cl1bx_CZ2JBgUTdo-4" value="" style="endArrow=classic;html=1;rounded=0;" parent="R20llAi6Esj5Cy62yfB9-1" edge="1">
                    <mxGeometry width="50" height="50" relative="1" as="geometry">
                        <mxPoint x="-30" y="320" as="sourcePoint"/>
                        <mxPoint x="110" y="159.9999999999999" as="targetPoint"/>
                    </mxGeometry>
                </mxCell>
                <mxCell id="6b82cl1bx_CZ2JBgUTdo-5" value="" style="endArrow=classic;html=1;rounded=0;" parent="R20llAi6Esj5Cy62yfB9-1" edge="1">
                    <mxGeometry width="50" height="50" relative="1" as="geometry">
                        <mxPoint x="-30" y="320" as="sourcePoint"/>
                        <mxPoint x="100.00000000000045" y="320" as="targetPoint"/>
                    </mxGeometry>
                </mxCell>
                <mxCell id="6b82cl1bx_CZ2JBgUTdo-6" value="" style="endArrow=classic;html=1;rounded=0;" parent="R20llAi6Esj5Cy62yfB9-1" edge="1">
                    <mxGeometry width="50" height="50" relative="1" as="geometry">
                        <mxPoint x="-30" y="320" as="sourcePoint"/>
                        <mxPoint x="110" y="480" as="targetPoint"/>
                    </mxGeometry>
                </mxCell>
                <mxCell id="6b82cl1bx_CZ2JBgUTdo-7" value="商品情報&lt;br&gt;を取得する" style="ellipse;shape=umlControl;whiteSpace=wrap;html=1;fillColor=#f8cecc;strokeColor=#b85450;" parent="R20llAi6Esj5Cy62yfB9-1" vertex="1">
                    <mxGeometry x="440" y="120" width="70" height="80" as="geometry"/>
                </mxCell>
                <mxCell id="6b82cl1bx_CZ2JBgUTdo-8" value="商品情報" style="ellipse;shape=umlEntity;whiteSpace=wrap;html=1;fillColor=#d5e8d4;strokeColor=#82b366;" parent="R20llAi6Esj5Cy62yfB9-1" vertex="1">
                    <mxGeometry x="720" y="200" width="80" height="80" as="geometry"/>
                </mxCell>
                <mxCell id="6b82cl1bx_CZ2JBgUTdo-9" value="表示する" style="ellipse;shape=umlControl;whiteSpace=wrap;html=1;fillColor=#f8cecc;strokeColor=#b85450;" parent="R20llAi6Esj5Cy62yfB9-1" vertex="1">
                    <mxGeometry x="440" y="280" width="70" height="80" as="geometry"/>
                </mxCell>
                <mxCell id="6b82cl1bx_CZ2JBgUTdo-10" value="" style="endArrow=classic;html=1;rounded=0;" parent="R20llAi6Esj5Cy62yfB9-1" edge="1">
                    <mxGeometry width="50" height="50" relative="1" as="geometry">
                        <mxPoint x="240" y="159.17000000000007" as="sourcePoint"/>
                        <mxPoint x="430" y="159.0000000000001" as="targetPoint"/>
                    </mxGeometry>
                </mxCell>
                <mxCell id="6b82cl1bx_CZ2JBgUTdo-11" value="「商品情報マスタ」&lt;br&gt;を押下" style="text;html=1;strokeColor=none;fillColor=none;align=center;verticalAlign=middle;whiteSpace=wrap;rounded=0;" parent="R20llAi6Esj5Cy62yfB9-1" vertex="1">
                    <mxGeometry x="270" y="120" width="110" height="30" as="geometry"/>
                </mxCell>
                <mxCell id="6b82cl1bx_CZ2JBgUTdo-12" value="" style="endArrow=classic;html=1;rounded=0;startArrow=classic;startFill=1;" parent="R20llAi6Esj5Cy62yfB9-1" edge="1">
                    <mxGeometry width="50" height="50" relative="1" as="geometry">
                        <mxPoint x="520" y="159.9999999999999" as="sourcePoint"/>
                        <mxPoint x="710.0000000000005" y="239.9999999999999" as="targetPoint"/>
                    </mxGeometry>
                </mxCell>
                <mxCell id="6b82cl1bx_CZ2JBgUTdo-13" value="" style="endArrow=none;html=1;rounded=0;jumpStyle=none;startArrow=classic;startFill=1;endFill=0;" parent="R20llAi6Esj5Cy62yfB9-1" edge="1">
                    <mxGeometry width="50" height="50" relative="1" as="geometry">
                        <mxPoint x="430" y="320" as="sourcePoint"/>
                        <mxPoint x="240" y="320" as="targetPoint"/>
                    </mxGeometry>
                </mxCell>
                <mxCell id="6b82cl1bx_CZ2JBgUTdo-14" value="" style="endArrow=classic;html=1;rounded=0;" parent="R20llAi6Esj5Cy62yfB9-1" edge="1">
                    <mxGeometry width="50" height="50" relative="1" as="geometry">
                        <mxPoint x="430" y="169.9999999999999" as="sourcePoint"/>
                        <mxPoint x="240" y="310" as="targetPoint"/>
                    </mxGeometry>
                </mxCell>
                <mxCell id="6b82cl1bx_CZ2JBgUTdo-15" value="" style="endArrow=none;html=1;rounded=0;jumpStyle=none;startArrow=classic;startFill=1;endFill=0;" parent="R20llAi6Esj5Cy62yfB9-1" edge="1">
                    <mxGeometry width="50" height="50" relative="1" as="geometry">
                        <mxPoint x="240" y="480" as="sourcePoint"/>
                        <mxPoint x="430" y="330" as="targetPoint"/>
                    </mxGeometry>
                </mxCell>
                <mxCell id="PfDgG7t9ohlqxf8iHbHs-0" value="ベンチマーク&lt;br&gt;情報一覧画面" style="shape=umlBoundary;whiteSpace=wrap;html=1;fillColor=#dae8fc;strokeColor=#6c8ebf;" parent="R20llAi6Esj5Cy62yfB9-1" vertex="1">
                    <mxGeometry x="120" y="280" width="100" height="80" as="geometry"/>
                </mxCell>
            </root>
        </mxGraphModel>
    </diagram>
    <diagram id="OvpScdd4KDrzfWwWWDi8" name="売上情報管理">
        <mxGraphModel dx="1762" dy="742" grid="1" gridSize="10" guides="1" tooltips="1" connect="1" arrows="1" fold="1" page="1" pageScale="1" pageWidth="827" pageHeight="1169" math="0" shadow="0">
            <root>
                <mxCell id="C8GtgaMKqe1gccSzZxkh-0"/>
                <mxCell id="C8GtgaMKqe1gccSzZxkh-1" parent="C8GtgaMKqe1gccSzZxkh-0"/>
                <mxCell id="eHqi9cICpPJnKuPPKJSP-0" value="管理者" style="shape=umlActor;verticalLabelPosition=bottom;verticalAlign=top;html=1;" parent="C8GtgaMKqe1gccSzZxkh-1" vertex="1">
                    <mxGeometry x="-70" y="280" width="30" height="60" as="geometry"/>
                </mxCell>
                <mxCell id="eHqi9cICpPJnKuPPKJSP-1" value="ログイン済&lt;br&gt;ホーム画面" style="shape=umlBoundary;whiteSpace=wrap;html=1;fillColor=#dae8fc;strokeColor=#6c8ebf;" parent="C8GtgaMKqe1gccSzZxkh-1" vertex="1">
                    <mxGeometry x="120" y="40" width="100" height="80" as="geometry"/>
                </mxCell>
                <mxCell id="eHqi9cICpPJnKuPPKJSP-2" value="売上情報&lt;br&gt;一覧画面" style="shape=umlBoundary;whiteSpace=wrap;html=1;fillColor=#dae8fc;strokeColor=#6c8ebf;" parent="C8GtgaMKqe1gccSzZxkh-1" vertex="1">
                    <mxGeometry x="120" y="200" width="100" height="80" as="geometry"/>
                </mxCell>
                <mxCell id="eHqi9cICpPJnKuPPKJSP-4" value="売上情報&lt;br&gt;を取得する" style="ellipse;shape=umlControl;whiteSpace=wrap;html=1;fillColor=#f8cecc;strokeColor=#b85450;" parent="C8GtgaMKqe1gccSzZxkh-1" vertex="1">
                    <mxGeometry x="420" y="40" width="70" height="80" as="geometry"/>
                </mxCell>
                <mxCell id="eHqi9cICpPJnKuPPKJSP-5" value="売上情報" style="ellipse;shape=umlEntity;whiteSpace=wrap;html=1;fillColor=#d5e8d4;strokeColor=#82b366;" parent="C8GtgaMKqe1gccSzZxkh-1" vertex="1">
                    <mxGeometry x="720" y="200" width="80" height="80" as="geometry"/>
                </mxCell>
                <mxCell id="eHqi9cICpPJnKuPPKJSP-6" value="表示する" style="ellipse;shape=umlControl;whiteSpace=wrap;html=1;fillColor=#f8cecc;strokeColor=#b85450;" parent="C8GtgaMKqe1gccSzZxkh-1" vertex="1">
                    <mxGeometry x="420" y="160" width="70" height="80" as="geometry"/>
                </mxCell>
                <mxCell id="eHqi9cICpPJnKuPPKJSP-8" value="詳細画面" style="shape=umlBoundary;whiteSpace=wrap;html=1;fillColor=#dae8fc;strokeColor=#6c8ebf;" parent="C8GtgaMKqe1gccSzZxkh-1" vertex="1">
                    <mxGeometry x="120" y="360" width="100" height="80" as="geometry"/>
                </mxCell>
                <mxCell id="eHqi9cICpPJnKuPPKJSP-9" value="更新する" style="ellipse;shape=umlControl;whiteSpace=wrap;html=1;fillColor=#f8cecc;strokeColor=#b85450;" parent="C8GtgaMKqe1gccSzZxkh-1" vertex="1">
                    <mxGeometry x="520" y="410" width="70" height="80" as="geometry"/>
                </mxCell>
                <mxCell id="eHqi9cICpPJnKuPPKJSP-10" value="" style="endArrow=classic;html=1;rounded=0;" parent="C8GtgaMKqe1gccSzZxkh-1" edge="1">
                    <mxGeometry width="50" height="50" relative="1" as="geometry">
                        <mxPoint x="240" y="80" as="sourcePoint"/>
                        <mxPoint x="400" y="80" as="targetPoint"/>
                    </mxGeometry>
                </mxCell>
                <mxCell id="eHqi9cICpPJnKuPPKJSP-11" value="編集画面" style="shape=umlBoundary;whiteSpace=wrap;html=1;fillColor=#dae8fc;strokeColor=#6c8ebf;" parent="C8GtgaMKqe1gccSzZxkh-1" vertex="1">
                    <mxGeometry x="120" y="520" width="100" height="80" as="geometry"/>
                </mxCell>
                <mxCell id="eHqi9cICpPJnKuPPKJSP-12" value="「売上情報マスタ」&lt;br&gt;を押下" style="text;html=1;strokeColor=none;fillColor=none;align=center;verticalAlign=middle;whiteSpace=wrap;rounded=0;" parent="C8GtgaMKqe1gccSzZxkh-1" vertex="1">
                    <mxGeometry x="230" y="50" width="170" height="30" as="geometry"/>
                </mxCell>
                <mxCell id="eHqi9cICpPJnKuPPKJSP-13" value="" style="endArrow=classic;html=1;rounded=0;" parent="C8GtgaMKqe1gccSzZxkh-1" edge="1">
                    <mxGeometry width="50" height="50" relative="1" as="geometry">
                        <mxPoint x="-30" y="320" as="sourcePoint"/>
                        <mxPoint x="110" y="80" as="targetPoint"/>
                    </mxGeometry>
                </mxCell>
                <mxCell id="eHqi9cICpPJnKuPPKJSP-15" value="" style="endArrow=classic;html=1;rounded=0;" parent="C8GtgaMKqe1gccSzZxkh-1" edge="1">
                    <mxGeometry width="50" height="50" relative="1" as="geometry">
                        <mxPoint x="-30" y="320" as="sourcePoint"/>
                        <mxPoint x="110" y="400" as="targetPoint"/>
                    </mxGeometry>
                </mxCell>
                <mxCell id="eHqi9cICpPJnKuPPKJSP-16" value="" style="endArrow=classic;html=1;rounded=0;" parent="C8GtgaMKqe1gccSzZxkh-1" edge="1">
                    <mxGeometry width="50" height="50" relative="1" as="geometry">
                        <mxPoint x="-30" y="320" as="sourcePoint"/>
                        <mxPoint x="110" y="560" as="targetPoint"/>
                    </mxGeometry>
                </mxCell>
                <mxCell id="eHqi9cICpPJnKuPPKJSP-17" value="" style="endArrow=classic;html=1;rounded=0;" parent="C8GtgaMKqe1gccSzZxkh-1" edge="1">
                    <mxGeometry width="50" height="50" relative="1" as="geometry">
                        <mxPoint x="-30" y="320" as="sourcePoint"/>
                        <mxPoint x="110" y="240" as="targetPoint"/>
                    </mxGeometry>
                </mxCell>
                <mxCell id="eHqi9cICpPJnKuPPKJSP-18" value="入力データを検証する" style="ellipse;shape=umlControl;whiteSpace=wrap;html=1;fillColor=#f8cecc;strokeColor=#b85450;" parent="C8GtgaMKqe1gccSzZxkh-1" vertex="1">
                    <mxGeometry x="420" y="320" width="70" height="80" as="geometry"/>
                </mxCell>
                <mxCell id="eHqi9cICpPJnKuPPKJSP-19" value="削除する" style="ellipse;shape=umlControl;whiteSpace=wrap;html=1;fillColor=#f8cecc;strokeColor=#b85450;" parent="C8GtgaMKqe1gccSzZxkh-1" vertex="1">
                    <mxGeometry x="420" y="640" width="70" height="80" as="geometry"/>
                </mxCell>
                <mxCell id="eHqi9cICpPJnKuPPKJSP-20" value="" style="endArrow=classic;html=1;rounded=0;" parent="C8GtgaMKqe1gccSzZxkh-1" edge="1">
                    <mxGeometry width="50" height="50" relative="1" as="geometry">
                        <mxPoint x="500" y="90" as="sourcePoint"/>
                        <mxPoint x="720" y="210" as="targetPoint"/>
                    </mxGeometry>
                </mxCell>
                <mxCell id="eHqi9cICpPJnKuPPKJSP-21" value="" style="endArrow=classic;html=1;rounded=0;" parent="C8GtgaMKqe1gccSzZxkh-1" edge="1">
                    <mxGeometry width="50" height="50" relative="1" as="geometry">
                        <mxPoint x="710" y="220" as="sourcePoint"/>
                        <mxPoint x="500" y="200" as="targetPoint"/>
                    </mxGeometry>
                </mxCell>
                <mxCell id="eHqi9cICpPJnKuPPKJSP-30" value="" style="endArrow=classic;html=1;rounded=0;startArrow=none;startFill=0;" parent="C8GtgaMKqe1gccSzZxkh-1" edge="1">
                    <mxGeometry width="50" height="50" relative="1" as="geometry">
                        <mxPoint x="600" y="440" as="sourcePoint"/>
                        <mxPoint x="710" y="250" as="targetPoint"/>
                    </mxGeometry>
                </mxCell>
                <mxCell id="eHqi9cICpPJnKuPPKJSP-31" value="" style="endArrow=classic;html=1;rounded=0;startArrow=none;startFill=0;" parent="C8GtgaMKqe1gccSzZxkh-1" edge="1">
                    <mxGeometry width="50" height="50" relative="1" as="geometry">
                        <mxPoint x="500" y="670" as="sourcePoint"/>
                        <mxPoint x="760" y="290" as="targetPoint"/>
                    </mxGeometry>
                </mxCell>
                <mxCell id="eHqi9cICpPJnKuPPKJSP-34" value="" style="endArrow=classic;html=1;rounded=0;startArrow=classic;startFill=1;" parent="C8GtgaMKqe1gccSzZxkh-1" edge="1">
                    <mxGeometry width="50" height="50" relative="1" as="geometry">
                        <mxPoint x="400" y="200" as="sourcePoint"/>
                        <mxPoint x="240" y="240" as="targetPoint"/>
                    </mxGeometry>
                </mxCell>
                <mxCell id="eHqi9cICpPJnKuPPKJSP-35" value="" style="endArrow=classic;html=1;rounded=0;startArrow=classic;startFill=1;" parent="C8GtgaMKqe1gccSzZxkh-1" edge="1">
                    <mxGeometry width="50" height="50" relative="1" as="geometry">
                        <mxPoint x="400" y="220" as="sourcePoint"/>
                        <mxPoint x="240" y="400" as="targetPoint"/>
                    </mxGeometry>
                </mxCell>
                <mxCell id="eHqi9cICpPJnKuPPKJSP-36" value="" style="endArrow=classic;html=1;rounded=0;startArrow=none;startFill=0;endFill=1;" parent="C8GtgaMKqe1gccSzZxkh-1" edge="1">
                    <mxGeometry width="50" height="50" relative="1" as="geometry">
                        <mxPoint x="410" y="230" as="sourcePoint"/>
                        <mxPoint x="240" y="550" as="targetPoint"/>
                    </mxGeometry>
                </mxCell>
                <mxCell id="eHqi9cICpPJnKuPPKJSP-37" value="" style="endArrow=classic;html=1;rounded=0;startArrow=classic;startFill=1;" parent="C8GtgaMKqe1gccSzZxkh-1" edge="1">
                    <mxGeometry width="50" height="50" relative="1" as="geometry">
                        <mxPoint x="240" y="560" as="sourcePoint"/>
                        <mxPoint x="420" y="390" as="targetPoint"/>
                    </mxGeometry>
                </mxCell>
                <mxCell id="eHqi9cICpPJnKuPPKJSP-38" value="" style="endArrow=classic;html=1;rounded=0;" parent="C8GtgaMKqe1gccSzZxkh-1" target="eHqi9cICpPJnKuPPKJSP-9" edge="1">
                    <mxGeometry width="50" height="50" relative="1" as="geometry">
                        <mxPoint x="480" y="400" as="sourcePoint"/>
                        <mxPoint x="530" y="470" as="targetPoint"/>
                    </mxGeometry>
                </mxCell>
                <mxCell id="eHqi9cICpPJnKuPPKJSP-39" value="" style="endArrow=classic;html=1;rounded=0;startArrow=none;startFill=0;jumpStyle=arc;" parent="C8GtgaMKqe1gccSzZxkh-1" edge="1">
                    <mxGeometry width="50" height="50" relative="1" as="geometry">
                        <mxPoint x="240" y="410" as="sourcePoint"/>
                        <mxPoint x="410" y="680" as="targetPoint"/>
                    </mxGeometry>
                </mxCell>
            </root>
        </mxGraphModel>
    </diagram>
</mxfile>